<svg width="29" height="28" viewBox="0 0 29 28" fill="none" xmlns="http://www.w3.org/2000/svg">
<path d="M14.5 1.75C7.49355 1.75 1.8125 7.23516 1.8125 14C1.8125 20.7648 7.49355 26.25 14.5 26.25C21.5064 26.25 27.1875 20.7648 27.1875 14C27.1875 7.23516 21.5064 1.75 14.5 1.75ZM14.5 24.1719C8.68301 24.1719 3.96484 19.6164 3.96484 14C3.96484 8.38359 8.68301 3.82812 14.5 3.82812C20.317 3.82812 25.0352 8.38359 25.0352 14C25.0352 19.6164 20.317 24.1719 14.5 24.1719Z" fill="black"/>
<path d="M19.4476 17.4617L15.4091 14.6426V7.875C15.4091 7.75469 15.3071 7.65625 15.1825 7.65625H13.8203C13.6957 7.65625 13.5938 7.75469 13.5938 7.875V15.4055C13.5938 15.4766 13.6277 15.5422 13.6872 15.5832L18.3714 18.8809C18.4733 18.952 18.6149 18.9301 18.6886 18.8344L19.4985 17.768C19.5722 17.6668 19.5495 17.5301 19.4476 17.4617V17.4617Z" fill="black"/>
</svg>
