<svg width="138" height="109" viewBox="0 0 138 109" fill="none" xmlns="http://www.w3.org/2000/svg">
<path d="M126.389 24.9208C128.905 25.1018 131.218 24.6615 133.755 23.9008C134.505 23.6756 135.252 23.4604 135.982 23.0552C136.364 22.8428 136.465 22.8456 136.211 23.4637C134.496 27.6434 132.428 31.3951 131.208 35.9089" stroke="black" stroke-width="3" stroke-linecap="round"/>
<path d="M5.1324 58.6927C6.04967 65.8478 6.98376 73.1394 8.49145 80.0079C9.39315 84.1157 11.0667 89.043 14.8409 88.4666C19.89 87.6956 24.813 79.8978 28.163 74.9201C32.7534 68.0995 36.3035 59.4536 41.4931 53.4547C44.4199 50.0714 45.3308 58.414 45.9105 60.7421C47.6307 67.6497 48.9057 76.9638 53.3618 81.2895C59.0736 86.8342 69.1384 76.1684 74.4654 72.1451C93.676 57.6363 112.755 42.7207 131.839 27.8238" stroke="black" stroke-width="3" stroke-linecap="round"/>
</svg>
