<svg width="327" height="327" viewBox="0 0 327 327" fill="none" xmlns="http://www.w3.org/2000/svg">
<path d="M227.083 36.3333H99.9167C95.0986 36.3333 90.4778 38.2473 87.0709 41.6542C83.664 45.0611 81.75 49.6819 81.75 54.5V272.5C81.75 277.318 83.664 281.939 87.0709 285.346C90.4778 288.753 95.0986 290.667 99.9167 290.667H227.083C231.901 290.667 236.522 288.753 239.929 285.346C243.336 281.939 245.25 277.318 245.25 272.5V54.5C245.25 49.6819 243.336 45.0611 239.929 41.6542C236.522 38.2473 231.901 36.3333 227.083 36.3333V36.3333ZM172.583 272.5H154.417V254.333H172.583V272.5ZM99.9167 236.167V54.5H227.083V236.167H99.9167Z" fill="black"/>
</svg>
