<svg width="174" height="156" viewBox="0 0 174 156" fill="none" xmlns="http://www.w3.org/2000/svg">
<path fill-rule="evenodd" clip-rule="evenodd" d="M16.0669 72.8323C17.6397 71.1377 20.027 69.6827 23.0561 69.9751C24.8289 70.1463 26.3392 70.9831 27.4266 71.705C28.1591 72.1913 28.9478 72.8083 29.5478 73.2777C29.8061 73.4797 30.0295 73.6545 30.1983 73.7796C31.2877 74.5872 31.3613 76.1299 30.3628 77.2255C29.3643 78.321 27.6717 78.5545 26.5824 77.7469C26.2261 77.4828 25.9092 77.2334 25.6011 76.991C25.0908 76.5893 24.6047 76.2068 24.0039 75.8079C23.0798 75.1945 22.3986 74.9217 21.9435 74.8778C21.2685 74.8126 20.6769 75.0404 19.9757 75.796C19.2109 76.62 18.5864 77.8345 18.2145 78.9752C17.3449 81.6418 17.4839 84.7386 18.5633 87.5378C19.6427 90.337 21.5814 92.6328 24.0362 93.8609C26.2358 94.9614 29.2694 95.1124 31.3334 94.114C33.2942 93.1655 34.0502 91.5606 35.4123 88.6688C35.452 88.5846 35.4921 88.4993 35.5329 88.4128C36.1423 87.1202 37.7277 86.4177 39.0739 86.8437C40.4201 87.2698 41.0174 88.663 40.408 89.9556C40.3128 90.1574 40.2154 90.3691 40.1143 90.5887C38.9831 93.0451 37.3917 96.5007 33.4103 98.4267C29.2827 100.423 24.3663 99.8801 21.109 98.2505C17.46 96.425 14.88 93.1994 13.4972 89.6133C12.1144 86.0273 11.8478 81.8748 13.1009 78.0322C13.6131 76.4614 14.5577 74.4584 16.0669 72.8323Z" fill="black"/>
<path fill-rule="evenodd" clip-rule="evenodd" d="M97.7497 32.7462C99.4193 31.004 101.932 29.4876 105.077 29.723C106.918 29.8608 108.472 30.6759 109.589 31.3832C110.342 31.8597 111.15 32.4671 111.765 32.9292C112.03 33.1282 112.259 33.3002 112.432 33.4232C113.549 34.2171 113.595 35.7733 112.535 36.8992C111.474 38.0251 109.709 38.2943 108.592 37.5005C108.226 37.2409 107.902 36.9953 107.586 36.7566C107.063 36.3612 106.565 35.9845 105.948 35.5937C104.998 34.9926 104.295 34.7306 103.823 34.6953C103.122 34.6428 102.502 34.8845 101.757 35.6613C100.945 36.5084 100.272 37.747 99.8623 38.9061C98.9049 41.6159 98.9883 44.74 100.056 47.545C101.123 50.35 103.095 52.6297 105.624 53.8213C107.891 54.8889 111.044 54.9814 113.21 53.9324C115.269 52.9359 116.087 51.3006 117.561 48.3537C117.604 48.2679 117.648 48.181 117.692 48.0929C118.351 46.7757 120.015 46.0351 121.407 46.4386C122.799 46.8421 123.392 48.237 122.733 49.5542C122.63 49.7599 122.524 49.9755 122.415 50.1993C121.19 52.7019 119.466 56.2226 115.286 58.246C110.952 60.3436 105.849 59.8923 102.492 58.3113C98.7324 56.5402 96.1121 53.3344 94.7445 49.7408C93.3769 46.1473 93.1817 41.9599 94.5613 38.0551C95.1252 36.4589 96.1475 34.4179 97.7497 32.7462Z" fill="black"/>
<path fill-rule="evenodd" clip-rule="evenodd" d="M28.2693 51.0225C29.6294 50.278 31.2621 50.6051 31.9159 51.7531C35.6427 58.2965 39.3497 64.8498 43.0482 71.4061C43.0057 70.2339 43.0315 69.0487 43.1515 67.859C43.2466 66.9169 43.4016 65.8944 43.7007 64.8487C43.8429 64.3516 44.2489 63.3057 44.6955 62.3486C44.9257 61.8553 45.2012 61.3101 45.4994 60.8213C45.6483 60.5772 45.8275 60.3062 46.0349 60.0455C46.2184 59.8148 46.5426 59.4391 47.0124 59.1141C49.0924 57.6747 51.2491 58.0262 52.6293 58.5748C54.0147 59.1253 55.2673 60.0907 56.2653 60.997C57.2956 61.9329 58.2143 62.9556 58.9071 63.7735C59.2562 64.1856 59.5545 64.5536 59.7833 64.8374C59.8147 64.8763 59.8441 64.9129 59.872 64.9475C59.9484 65.0423 60.0127 65.1221 60.0692 65.1915C60.1068 65.2377 60.1366 65.2739 60.1601 65.3019C60.1841 65.3306 60.1944 65.3422 60.1948 65.3426L60.1948 65.3426C63.7214 69.2634 66.8734 73.3877 69.2281 78.1859C69.8098 79.3713 69.1526 80.8862 67.7601 81.5696C66.3676 82.253 64.7672 81.846 64.1854 80.6606C62.0577 76.325 59.1717 72.5183 55.7872 68.7555C55.6305 68.5813 55.4276 68.3299 55.1812 68.0245C54.4942 67.1731 53.4685 65.902 52.1602 64.7137C51.3198 63.9504 50.5661 63.4261 49.9805 63.1795C49.8888 63.3542 49.7913 63.5518 49.6915 63.7658C49.5084 64.1582 49.3387 64.5596 49.2056 64.8966C49.1393 65.0643 49.0847 65.2094 49.0438 65.3234C49.0234 65.3803 49.0077 65.4258 48.9964 65.4599C48.9843 65.4963 48.9806 65.5095 48.982 65.5044C48.7905 66.1741 48.6731 66.8948 48.5937 67.6821C48.191 71.673 49.0571 75.7072 49.964 79.9309C49.9914 80.0589 50.019 80.187 50.0465 80.3153C50.4218 82.0655 50.7618 83.5041 51.2369 85.1501C51.2393 85.1564 51.2479 85.1782 51.2676 85.2222C51.2822 85.2548 51.2968 85.2864 51.3178 85.3316L51.3316 85.3615C51.3574 85.417 51.3914 85.4907 51.4257 85.57C51.5502 85.857 51.7996 86.466 51.7405 87.254C51.7317 87.3716 51.7062 87.6193 51.5992 87.9202C51.512 88.1652 51.2186 88.8838 50.3669 89.4271C49.3524 90.0743 48.3589 89.9823 47.839 89.8285C47.3815 89.6932 47.095 89.4714 46.9895 89.3858C46.6429 89.1046 46.4278 88.7426 46.3952 88.6878C46.3936 88.6849 46.3924 88.6829 46.3917 88.6818C46.3112 88.5512 46.2348 88.4124 46.1867 88.3248L46.1209 88.2049C46.1051 88.1765 46.0989 88.1658 46.0989 88.1658L46.0999 88.1673C45.4786 87.138 44.8849 86.0896 44.3077 85.0701C44.1855 84.8544 44.0641 84.64 43.9433 84.4273C43.0174 82.7971 42.0969 81.1598 41.1788 79.527C40.7177 78.7068 40.2572 77.8878 39.797 77.0714C35.5412 69.5214 31.2785 61.978 26.9904 54.4491C26.3366 53.3012 26.9092 51.767 28.2693 51.0225ZM49.5583 63.0497C49.5577 63.0488 49.5678 63.0486 49.5904 63.0522C49.5702 63.0525 49.5589 63.0507 49.5583 63.0497Z" fill="black"/>
<path fill-rule="evenodd" clip-rule="evenodd" d="M67.7885 50.5637C70.8054 47.3875 75.0777 45.7597 78.7416 45.0869C80.1185 44.8341 81.7971 44.6322 83.473 44.7087C85.138 44.7848 86.9785 45.1443 88.4801 46.164C90.8275 47.758 91.0922 50.7999 89.8556 53.1551C88.9725 54.837 87.4289 56.365 85.837 57.6656C84.2044 58.9995 82.2874 60.2804 80.3925 61.4464C78.4898 62.6172 76.5411 63.7134 74.8318 64.6642C74.5622 64.8141 74.3004 64.9595 74.0466 65.1004C73.7296 65.2764 73.4252 65.4454 73.134 65.6076C74.6919 67.5358 76.5766 68.9489 78.2005 69.4848C80.2112 70.1485 82.6781 69.6148 85.585 67.9416C88.4767 66.2772 91.3352 63.7333 93.6307 61.2667C94.6644 60.156 96.3971 59.8852 97.5008 60.6618C98.6046 61.4384 98.6614 62.9683 97.6278 64.079C95.104 66.7909 91.7404 69.8421 88.0551 71.9632C84.3851 74.0756 79.9201 75.5179 75.6916 74.1222C72.2521 72.987 68.9848 69.9874 66.907 66.4844C66.8883 66.4545 66.8705 66.4242 66.8536 66.3937C66.55 65.8756 66.2726 65.3468 66.0245 64.8116C64.0981 60.656 63.5078 55.0705 67.7885 50.5637L69.7652 51.9931L67.7885 50.5637ZM70.7597 61.5317C71.0656 61.3613 71.3788 61.1875 71.6962 61.0113C71.9445 60.8735 72.1955 60.7342 72.4477 60.5939C74.1467 59.6488 75.9849 58.6136 77.7527 57.5258C79.5284 56.4331 81.1656 55.3283 82.4756 54.258C83.8264 53.1544 84.6142 52.2596 84.9559 51.6087C85.2693 51.0118 85.0598 50.4061 84.7971 50.2277C84.2856 49.8803 83.5008 49.6595 82.4256 49.6104C81.3613 49.5618 80.1848 49.6899 79.0891 49.8911C76.2055 50.4205 73.4675 51.6057 71.7419 53.4224C69.8544 55.4097 69.5282 58.3205 70.7597 61.5317Z" fill="black"/>
<path fill-rule="evenodd" clip-rule="evenodd" d="M108.457 9.35454C109.764 8.58441 111.383 8.85226 112.074 9.9528C116.612 17.1818 121.36 25.4368 126.061 33.61C128.761 38.3036 131.445 42.9702 134.065 47.4001C134.726 48.5178 134.19 50.0278 132.868 50.7728C131.546 51.5178 129.938 51.2157 129.277 50.098C126.601 45.5728 123.892 40.8624 121.182 36.1516C116.514 28.0349 111.845 19.9168 107.341 12.7417C106.651 11.6411 107.15 10.1247 108.457 9.35454Z" fill="black"/>
<path fill-rule="evenodd" clip-rule="evenodd" d="M129.937 16.6192C131.434 16.6545 132.441 17.7855 132.186 19.1454C131.875 20.8094 131.3 24.1875 130.774 27.2781C130.42 29.3565 130.088 31.3048 129.874 32.5142C129.805 32.9028 129.732 33.2753 129.662 33.6308C129.549 34.2055 129.445 34.7358 129.382 35.2178C129.771 35.3149 130.165 35.4122 130.562 35.5102C132.119 35.8947 133.722 36.2907 135.29 36.7302C136.072 36.9492 137.473 37.348 139.035 37.7925C141.71 38.554 144.856 39.4494 146.163 39.804C147.548 40.1796 148.166 41.544 147.545 42.8515C146.923 44.159 145.296 44.9144 143.912 44.5388C142.581 44.1778 139.332 43.2533 136.628 42.4835C135.092 42.0466 133.732 41.6594 132.997 41.4535C131.514 41.0379 130.026 40.6704 128.492 40.2915C127.947 40.1568 127.395 40.0206 126.836 39.8803C126.837 39.8803 126.833 39.8793 126.82 39.8763L126.774 39.8651L126.632 39.8301C126.52 39.8023 126.374 39.7656 126.22 39.7243C126.068 39.6837 125.892 39.6343 125.721 39.5808C125.583 39.5372 125.329 39.4549 125.09 39.3392C124.223 38.919 123.984 38.1918 123.92 37.9739C123.834 37.6814 123.822 37.4199 123.819 37.2936C123.815 37.1489 123.822 37.0208 123.825 36.9654C123.825 36.9637 123.825 36.9622 123.825 36.9606C123.798 35.6984 124.115 34.1112 124.323 33.0735C124.373 32.8228 124.416 32.6041 124.447 32.4298C124.649 31.293 124.973 29.391 125.323 27.335C125.857 24.1969 126.453 20.7 126.768 19.0177C127.022 17.6578 128.441 16.584 129.937 16.6192Z" fill="black"/>
<path fill-rule="evenodd" clip-rule="evenodd" d="M115.206 63.9039C116.605 63.2172 118.204 63.6077 118.777 64.7761C119.976 67.2185 121.271 70.4817 122.653 73.9632C123.095 75.0782 123.547 76.2156 124.007 77.3555C125.934 82.1321 128.046 87.0499 130.421 91.072C132.858 95.2004 135.321 97.933 137.7 98.903C138.78 99.3436 139.756 99.385 140.746 99.0961C141.796 98.7891 143.18 98.0147 144.895 96.3151C145.978 95.2413 147.711 95.041 148.766 95.8678C149.822 96.6946 149.799 98.2354 148.715 99.3092C146.513 101.493 144.196 103.03 141.746 103.745C139.235 104.479 136.91 104.254 134.872 103.423C131.014 101.85 127.972 98.0175 125.498 93.8257C122.96 89.5274 120.755 84.3694 118.823 79.5808C118.333 78.3659 117.862 77.18 117.408 76.0369C116.045 72.6022 114.834 69.5537 113.71 67.2629C113.137 66.0944 113.806 64.5906 115.206 63.9039Z" fill="black"/>
<path fill-rule="evenodd" clip-rule="evenodd" d="M61.8636 117.3C61.8102 111.493 65.404 107.094 68.2704 105.081C69.949 103.903 71.9385 103.297 73.7366 103.093C75.5327 102.888 77.4074 103.052 78.9293 103.676C87.4768 107.181 90.8435 114.396 90.8719 122.578C90.8766 123.927 90.5821 125.504 89.9897 127.004C89.4075 128.478 88.4402 130.121 86.9113 131.368C84.5875 133.263 81.5823 134.545 78.6895 134.957C73.4748 135.698 69.8314 133.823 67.2276 130.643C64.3446 127.121 61.9099 122.345 61.8636 117.3L61.8636 117.3ZM71.2479 108.78C69.7394 109.839 67.3033 112.63 67.3395 116.564C67.3743 120.353 69.261 124.286 71.8026 127.391C73.6505 129.648 75.7085 130.522 78.5967 130.111C80.3497 129.862 82.1997 129.062 83.5542 127.957C83.9847 127.606 84.4717 126.939 84.852 125.976C85.2221 125.039 85.3985 124.051 85.3958 123.29C85.3716 116.304 82.5794 110.852 76.0924 108.192C75.5442 107.967 74.6589 107.846 73.6546 107.961C72.6523 108.075 71.8009 108.392 71.2479 108.78Z" fill="black"/>
<path fill-rule="evenodd" clip-rule="evenodd" d="M113.148 86.0022C112.641 84.9686 113.309 83.6006 114.642 82.9467L128.869 75.9648C130.201 75.311 131.692 75.6189 132.2 76.6525C132.707 77.6862 132.038 79.0542 130.706 79.708L116.479 86.6899C115.146 87.3438 113.655 87.0359 113.148 86.0022Z" fill="black"/>
<path fill-rule="evenodd" clip-rule="evenodd" d="M107.671 87.413C107.772 87.5448 107.897 87.748 107.989 87.8972C108.576 88.85 109.155 89.904 109.712 91.0332C111.582 94.2621 114.434 99.166 116.597 101.389C117.948 102.777 119.748 104.616 121.615 105.984C122.549 106.669 123.399 107.158 124.121 107.422C124.873 107.697 125.179 107.618 125.184 107.616C126.655 107.173 128.083 107.845 128.374 109.117C128.666 110.388 127.71 111.778 126.239 112.221C124.446 112.761 122.779 112.446 121.498 111.978C120.187 111.498 118.945 110.737 117.846 109.931C116.675 109.073 115.551 108.079 114.558 107.132C114.693 108.378 114.759 109.605 114.741 110.792C114.702 113.335 114.274 115.884 113.132 118.06C112.411 119.434 111.301 120.727 109.627 121.382C107.973 122.029 106.441 121.786 105.32 121.384C103.184 120.617 101.185 118.784 99.6468 117.185C94.5345 111.871 89.9307 105.462 85.9925 99.1194C85.3088 98.0182 85.8362 96.4973 87.1704 95.7224C88.5047 94.9476 90.1406 95.2122 90.8243 96.3134C94.6783 102.521 99.115 108.678 103.961 113.715C105.526 115.341 106.91 116.457 107.914 116.818C107.971 116.838 108.019 116.853 108.061 116.865C108.118 116.784 108.191 116.669 108.276 116.508C108.901 115.317 109.279 113.598 109.312 111.404C109.346 109.246 109.044 106.81 108.486 104.295C107.653 100.534 106.279 96.7391 104.751 93.6196C104.53 93.2355 103.923 92.1716 103.46 91.3454C103.224 90.9228 103 90.5189 102.895 90.3122C102.894 90.3113 102.893 90.3099 102.893 90.3082C102.878 90.2801 102.81 90.1488 102.76 90.0103C102.759 90.0099 102.759 90.0092 102.759 90.0083C102.75 89.9851 102.68 89.7989 102.65 89.5546C102.64 89.477 102.627 89.3381 102.639 89.1614C102.648 89.0157 102.682 88.6556 102.899 88.2239C103.15 87.7255 103.708 87.0396 104.69 86.6982C105.544 86.4013 106.22 86.5463 106.494 86.6255C106.991 86.7689 107.292 87.026 107.34 87.0665C107.342 87.0681 107.343 87.0694 107.344 87.0703C107.441 87.1514 107.509 87.2232 107.54 87.2567C107.606 87.3281 107.653 87.3894 107.671 87.413ZM107.876 87.7682C107.876 87.7686 107.879 87.7747 107.884 87.7855C107.878 87.7732 107.876 87.7678 107.876 87.7682ZM107.917 117.033C107.917 117.033 107.922 117.029 107.931 117.022C107.922 117.03 107.918 117.034 107.917 117.033ZM108.253 116.904C108.261 116.904 108.265 116.904 108.265 116.904C108.265 116.905 108.261 116.905 108.253 116.904Z" fill="black"/>
</svg>
